<svg id="Layer_1" data-name="Layer 1" xmlns="http://www.w3.org/2000/svg" viewBox="0 0 264.66 102.15"><defs><style>.cls-1,.cls-4,.cls-5{fill:#074193;}.cls-2{fill:#1095f7;}.cls-3{fill:#0053fb;}.cls-4,.cls-5{stroke:#074193;stroke-miterlimit:10;}.cls-4{stroke-width:0.22px;}.cls-5{stroke-width:0.21px;}</style></defs><title>logo_color_web</title><polyline class="cls-1" points="26.92 76.96 0 76.96 45.21 0 71.78 0 26.92 76.96"/><polygon class="cls-2" points="72.72 47.91 58.57 71.38 76.17 102.09 103.09 102.09 72.72 47.91"/><polygon class="cls-3" points="40.38 102.15 12.08 102.15 0 76.96 26.95 76.96 40.38 102.15"/><path class="cls-4" d="M173.33,139.19" transform="translate(-34.45 -44.6)"/><path class="cls-5" d="M133.58,61.93H156.2v4.5h-8.9V89.37h-4.82V66.43h-8.9Z" transform="translate(-34.45 -44.6)"/><path class="cls-5" d="M162.94,61.93h15.88v4.5H167.76v6.83h9.88v4.5h-9.88v7.1h11.45v4.51H162.94Z" transform="translate(-34.45 -44.6)"/><path class="cls-5" d="M206.65,89.37l-15.09-19v19h-4.51V61.93h3.84L206,81V61.93h4.51V89.37Z" transform="translate(-34.45 -44.6)"/><path class="cls-5" d="M218.25,69.06c0-4.11,3.22-7.56,8.55-7.56a10.53,10.53,0,0,1,7.84,2.94L232.05,68a6.34,6.34,0,0,0-4.86-2c-2.39,0-3.84,1.22-3.84,3,0,5.69,12.43,3.88,12.43,13,0,4.62-4,7.76-9.18,7.76-3.52,0-7.64-1.53-9-4.31l2.74-3.3a8.27,8.27,0,0,0,6.31,3.1c2.28,0,4-1.14,4-3.21C230.68,76.67,218.25,78,218.25,69.06Z" transform="translate(-34.45 -44.6)"/><path class="cls-5" d="M254.48,61.5c8.15,0,14.3,5.6,14.3,14.15,0,8.23-6.15,14.15-14.3,14.15s-14.27-5.61-14.27-14.15A13.79,13.79,0,0,1,254.48,61.5Zm0,23.79c5.76,0,9.21-4.23,9.21-9.64,0-5.69-4-9.65-9.21-9.65s-9.18,4-9.18,9.65C245.3,81.13,249.34,85.29,254.48,85.29Z" transform="translate(-34.45 -44.6)"/><path class="cls-5" d="M274.59,89.37V61.93c1.53,0,7.56-.08,8.35-.08,7.49,0,10,3.72,10,8.47a7.94,7.94,0,0,1-5.3,7.84l8.59,11.21h-5.84L282.78,79.1h-3.37V89.37Zm4.82-22.94v8.16h3.14c2.78,0,5.25-1.41,5.25-4.24,0-2.15-1.18-4-5.1-4C281.8,66.36,280.7,66.4,279.41,66.43Z" transform="translate(-34.45 -44.6)"/><path class="cls-5" d="M173.62,104h4.23l11.61,27.52h-5.14l-2.86-7H169.74l-2.86,7H162Zm-2,16h8l-4-9.76Z" transform="translate(-34.45 -44.6)"/><path class="cls-5" d="M194.56,104.12h4.82v22.93h12.35v4.51H194.56Z" transform="translate(-34.45 -44.6)"/><path class="cls-5" d="M218.48,131.56V104.12c1.53,0,5.88-.08,7.8-.08,8.08,0,10.62,4.31,10.62,8.82s-3.48,8.9-10,8.9c-.82,0-2.39,0-3.57-.12v9.92Zm4.82-22.94v8.43a33.3,33.3,0,0,0,3.41.2c2.86,0,5.1-1.37,5.1-4.43,0-2.86-1.76-4.27-5.06-4.27C225.77,108.55,224.6,108.59,223.3,108.62Z" transform="translate(-34.45 -44.6)"/><path class="cls-5" d="M261.67,119.84H249.12v11.72H244.3V104.12h4.82v11.21h12.55V104.12h4.78v27.44h-4.78Z" transform="translate(-34.45 -44.6)"/><path class="cls-5" d="M283.11,104h4.23L299,131.56h-5.14l-2.86-7H279.23l-2.86,7h-4.86Zm-2,16h8l-4-9.76Z" transform="translate(-34.45 -44.6)"/></svg>